<svg width="17" height="16" viewBox="0 0 17 16" fill="none" xmlns="http://www.w3.org/2000/svg">
<path d="M14.1971 8.12601C14.1971 7.75733 14.1624 7.40733 14.1029 7.06665H8.5V9.17133H11.708C11.5642 9.86201 11.1428 10.4453 10.518 10.842V12.242H12.432C13.5525 11.2667 14.1971 9.82933 14.1971 8.12601Z" fill="#4285F4"/>
<path d="M8.49958 13.6C10.1061 13.6 11.4498 13.096 12.4316 12.242L10.5176 10.842C9.98211 11.178 9.30283 11.3833 8.49958 11.3833C6.94761 11.3833 5.63368 10.3986 5.16261 9.0686H3.18921V10.5106C4.166 12.34 6.17411 13.6 8.49958 13.6Z" fill="#34A853"/>
<path d="M5.16308 9.06858C5.03915 8.73258 4.97467 8.37326 4.97467 7.99994C4.97467 7.62658 5.04408 7.26726 5.16308 6.93126V5.48926H3.18967C2.78309 6.24526 2.55005 7.09458 2.55005 7.99994C2.55005 8.90526 2.78309 9.75458 3.18967 10.5106L5.16308 9.06858Z" fill="#FBBC05"/>
<path d="M8.49958 4.61658C9.3772 4.61658 10.1606 4.90122 10.7804 5.45658L12.4762 3.86057C11.4498 2.95523 10.1061 2.3999 8.49958 2.3999C6.17411 2.3999 4.166 3.6599 3.18921 5.48922L5.16261 6.93122C5.63368 5.60122 6.94761 4.61658 8.49958 4.61658Z" fill="#EA4335"/>
</svg>
