<svg width="91" height="75" viewBox="0 0 91 75" fill="none" xmlns="http://www.w3.org/2000/svg">
<g clip-path="url(#clip0_153_806)">
<path d="M0.875 22.9076V59.8125C0.875 63.7576 2.44218 67.5411 5.23179 70.3307C8.02139 73.1203 11.8049 74.6875 15.75 74.6875H75.25C79.1951 74.6875 82.9786 73.1203 85.7682 70.3307C88.5578 67.5411 90.125 63.7576 90.125 59.8125V15.1875C90.125 11.2424 88.5578 7.45889 85.7682 4.66929C82.9786 1.87968 79.1951 0.3125 75.25 0.3125H15.75C11.8049 0.3125 8.02139 1.87968 5.23179 4.66929C2.44218 7.45889 0.875 11.2424 0.875 15.1875V22.9076ZM15.75 7.75H75.25C77.2225 7.75 79.1143 8.53359 80.5091 9.92839C81.9039 11.3232 82.6875 13.215 82.6875 15.1875V20.6912L45.5 40.713L8.3125 20.6912V15.1875C8.3125 13.215 9.09609 11.3232 10.4909 9.92839C11.8857 8.53359 13.7775 7.75 15.75 7.75ZM8.3125 29.1402L43.7373 48.21C44.2791 48.5016 44.8847 48.6543 45.5 48.6543C46.1153 48.6543 46.7209 48.5016 47.2627 48.21L82.6875 29.1402V59.8125C82.6875 61.785 81.9039 63.6768 80.5091 65.0716C79.1143 66.4664 77.2225 67.25 75.25 67.25H15.75C13.7775 67.25 11.8857 66.4664 10.4909 65.0716C9.09609 63.6768 8.3125 61.785 8.3125 59.8125V29.1402Z" fill="#F15B3E"/>
</g>
<defs>
<clipPath id="clip0_153_806">
<rect width="91" height="75" fill="white"/>
</clipPath>
</defs>
</svg>
